<svg aria-label="Antoine Corre portrait" viewBox="0 0 265 264"
	xmlns:xlink="http://www.w3.org/1999/xlink" x="0px" y="0px" xml:space="preserve">
	<clipPath id="cliphexa">
		<path id="hexa" d="M0,80.9c0-9.4,6.4-21,14.6-25.7l89.2-51.6c8.2-4.7,21.5-4.7,29.7,0l89.9,51.6c8.2,4.7,15.4,16.3,15.4,25.7
				v103.2c0,9.4-7.3,21-15.4,25.7l-89.7,51.6c-8.2,4.7-21.7,4.7-29.9,0l-89.2-51.6C6.5,205.1,0,193.5,0,184.1V80.9z"></path>
	</clipPath>
	<symbol clip-path="url(#cliphexa)" id="avatar">
		<g>
			<path fill="#4BD1D3" d="M0,80.9c0-9.4,6.4-21,14.6-25.7l89.2-51.6c8.2-4.7,21.5-4.7,29.7,0l89.9,51.6c8.2,4.7,15.4,16.3,15.4,25.7
				v103.2c0,9.4-7.3,21-15.4,25.7l-89.7,51.6c-8.2,4.7-21.7,4.7-29.9,0l-89.2-51.6C6.5,205.1,0,193.5,0,184.1V80.9z"></path>
			<g transform="translate(-10, 0)">
				<g opacity="0.5">
					<path fill="#2B7381" d="M131.76,110.77c3.93-2.01,8.04-3.72,12.23-5.19c2.53,3.72,4.69,7.57,6.59,11.55
								C144.57,114.37,138.28,112.25,131.76,110.77z"></path>
					<path fill="#2B7381" d="M135.98,209.03c2.48,1.82,4.94,3.58,7.6,5.13c-5.83,7.81-12.7,14.63-20.58,20.34
								c-6.3-4.35-12.23-9.23-17.65-14.64c-7.6,1.01-15.25,1.28-22.84,0.93c-2.79-9.31-4.19-18.91-4.11-28.67
								c3.07,0.37,6.17,0.5,9.25,0.57C102.5,201.25,118.99,206.83,135.98,209.03z"></path>
					<path fill="#2B7381" d="M144.53,172.05c5.49-3.76,10.49-8.1,15.03-12.88c-0.12,4.38-0.57,8.77-1.26,13.11
								C153.71,172.58,149.1,172.49,144.53,172.05z"></path>
					<path fill="#2B7381" d="M216.61,107.49c-0.81,6.8-2.11,13.51-3.97,20.15c4.09,5.33,7.63,10.95,10.82,16.77
								c-6.55,7.08-14.09,13.19-22.46,18.11c-1.15-2.4-2.33-4.69-3.68-7.02c-0.01,0.04-0.03,0.07-0.06,0.1
								c-0.13-16.97-3.64-33.76-10.22-49.38c0.35,0.29,1.83-4.76,2.04-7.57C198.64,100.17,207.94,103.21,216.61,107.49z"></path>
					<path fill="#2B7381" d="M168.98,31.73c-10.46,2.9-20.34,7.55-29.16,13.52c-8.74-5.77-18.19-10.47-28.09-13.96
								c16.6-14.37,36.76-24.57,58.93-29.02l8.88-1.8l6.05,6.84c14.85,16.97,24.74,37.34,29.21,58.84
								c-10.06-3.26-20.37-5.24-30.85-5.98C180.55,50.07,175.59,40.4,168.98,31.73z"></path>
					<path fill="#2B7381" d="M208.09,228.24c2.16-9.42,3-18.84,2.53-28.13c9.5-4.56,18.36-10.18,26.48-16.8
								c3.47,19.84,2.21,40.63-4.05,60.68l-2.79,8.9l-9.09,1.77c-20.22,4.07-41.09,3.14-60.83-2.57c7.51-7.34,14.16-15.55,19.74-24.5
								C189.3,229.1,198.79,229.35,208.09,228.24z"></path>
					<path fill="#2B7381" d="M99.1,138.73c0.72,6.55,2.12,13.06,4.13,19.35c-3.88-2.43-7.6-5.16-11-8.15
								C94.23,146.03,96.54,142.28,99.1,138.73z"></path>
					<path fill="#2B7381" d="M22.86,110.85c2.41,10.18,6.04,20.04,10.88,29.45c-6.06,7.07-11.13,15.06-15.05,23.88
								c6.71,6.54,14.33,12.05,22.56,16.45c-0.91,10.54-0.64,21.1,0.87,31.5c-19.2-7.47-36.33-19.41-49.89-34.88l-6.13-6.93l3.19-8.78
								C-3.6,141.79,8.03,124.52,22.86,110.85z"></path>
					<path fill="#2B7381" d="M76.11,81.47c2.47-6.44,5.6-12.54,9.07-18.43c9.51,1.86,18.73,5.07,27.25,9.69
								c-1.62,2.33-3.5,7.25-2.97,7.25C94.68,88.38,81.69,99.59,71.29,113c0.01-0.03,0.03-0.06,0.03-0.1
								c-2.44,1.04-4.83,2.12-7.13,3.36c-3.74-9.01-6.04-18.45-6.85-28.03C63.33,85.52,69.64,83.23,76.11,81.47z"></path>
					<path fill="#2B7381" d="M50.32,157.78c-11.96,41.84-1.88,87.43,27.05,120.34l5.97,6.85l8.96-1.79
								c42.89-8.64,78.6-38.75,94.54-79.24c40.33-11.02,72.46-40.45,86.84-80.08l3.19-8.75l-6.13-6.93
								c-14.87-16.96-34.04-29.74-55.44-36.98c-18.56-6.28-38.35-8.18-57.76-5.64c-13.85-13.79-30.76-24.29-49.34-30.58
								c-21.32-7.21-44.31-8.67-66.42-4.23l-9.08,1.79l-2.78,8.88C17.28,81.63,24.95,124.54,50.32,157.78z M162.24,176.69
								c-27.47,2.73-55.73-6.83-75.9-25.67c11.81-24.66,33.24-43.06,59.55-51C161.94,122.29,167.89,149.93,162.24,176.69z
								 M191.57,172.51c3.55-27.75-2.27-55.71-16.69-79.77c25.61,0.18,51,10.65,69.38,28.56
								C233.71,144.66,214.94,162.76,191.57,172.51z M74.7,178.28c22.56,17.91,51.46,27.68,80.28,27.14
								C142,228.89,120,246.44,93.9,253.73C77.58,232.11,70.8,204.79,74.7,178.28z M54.87,57.23c25.38-3.08,51.91,3.99,72.39,19.39
								c-26,10.4-47.65,29.06-61.68,53.27C52.9,107.95,49,82.18,54.87,57.23z"></path>
				</g>
				<path fill="#2B7381" d="M160.88,177.58c-0.26,0.08-0.52,0.03-0.77,0.11c-0.01,0-0.03,0-0.05,0c-0.02-0.01-0.03-0.01-0.05-0.02
						c-6.36-2.55-11.77-4.21-15.11-4.74c-3.51-0.56-4.4-8.08-4.62-11.58c0.04-0.02,0.09-0.03,0.13-0.05c5.23-2.31,9.3-7.12,12-12.02
						c1.32-2.4,4.28-12.19,6.63-21.59c0.02-0.07,0,0,0,0c5.78-2.97,8.94-16.26,4.3-23.22c0-0.01,0-0.02,0-0.03
						c1.33-7.93,0.75-16.03-0.27-23.99c-0.96-7.55-3.73-16.43-9.17-22.25c-0.24-0.41-0.5-0.8-0.81-1.16
						c-2.12-2.47-5.37-4.18-8.21-6.04c-0.48-0.35-0.97-0.7-1.48-1.03c-0.09-0.06-0.18-0.13-0.27-0.19c-0.43-0.33-0.91-0.6-1.41-0.84
						c-4.04-2.34-8.6-4.05-12.73-5.56c-2.31-0.84-4.67-1.36-7.09-1.55c-2.01,0.19-4.81,0.71-7.11,1.55
						c-4.13,1.51-8.71,3.22-12.75,5.56c-0.5,0.24-0.99,0.51-1.42,0.84c-0.09,0.07-0.18,0.13-0.27,0.19c-0.51,0.33-1,0.67-1.48,1.03
						c-2.84,1.87-6.09,3.57-8.21,6.04c-0.31,0.36-0.57,0.76-0.81,1.16c-5.44,5.82-8.2,14.7-9.16,22.25
						c-1.02,7.97-1.55,16.08-0.2,24.03c0.16,0.96,0.13,0.96-0.03,0c-4.63,6.97-1.49,20.18,4.28,23.17c-0.97-3.96-0.95-3.9,0.02,0.05
						c2.31,9.4,5.28,19.21,6.6,21.61c2.69,4.9,6.76,9.7,11.99,12.01c0.06,0.02,0.12,0.04,0.17,0.06c-0.23,3.51-1.11,11.11-4.62,11.66
						c-3.29,0.52-8.6,1.75-14.85,4.73c0,0,0,0,0,0c-0.04,0-0.08-0.12-0.12-0.13c-0.01,0-0.02-0.04-0.02-0.04
						c-0.26-0.07-0.52-0.05-0.78-0.13c-22.41,8.93-56.71,29.01-56.71,49.95l96.28,56.1l94.93-56.11
						C217.59,206.47,183.29,186.51,160.88,177.58z"></path>
				<g>
					<path fill="#ECEBE3" d="M173.64,181.77c-6.9-2.76-12.75-4.56-16.37-5.14c-3.81-0.61-4.77-8.76-5.01-12.55
							c-5.97,2.6-12.6,2.77-19.05,2.61c-0.29-0.01-0.59-0.01-0.89-0.01c0,0-0.63,0-0.91,0.01c-6.43,0.16-13.06-0.01-19.02-2.59
							c-0.24,3.8-1.21,11.94-5.01,12.54c-3.57,0.57-9.32,2.32-16.09,5.02c13.05,3.86,26.85,6.32,41.14,6.32
							C146.75,187.98,160.58,185.64,173.64,181.77z"></path>
					<path fill="#ECEBE3" d="M132.3,154.99c2.31,0,4.2-0.24,4.31,2.89c10.97-1.06,19.34-6.5,19.34-13.06
							c0-7.33-10.41-13.26-23.25-13.26c-0.12,0-0.24,0.01-0.37,0.01c-12.67,0.11-22.88,6-22.88,13.25c0,6.4,7.96,11.73,18.54,12.98
							C128.13,154.71,130,154.99,132.3,154.99z"></path>
					<path fill="#ECEBE3" d="M166.11,84.61c-0.94-4.62-3.41-7.82-5.49-11.94c-0.88-1.74-1.8-3.54-1.67-5.48
							c-2.46,0.94-4.93,1.78-7.18,2.62c-6.22,2.32-12.8,3.9-19.45,4.22c-6.54-0.33-13.26-1.9-19.48-4.22
							c-2.25-0.84-4.74-1.68-7.21-2.62c0.13,1.94-0.79,3.74-1.67,5.48c-2.08,4.12-4.55,7.32-5.49,11.94
							c-1.2,5.89-0.5,12.08-0.32,18.04c0.06,2.11,0.42,8.33,0.68,12.91c0.17,2.92,0.3,5.18,0.3,5.27c0,4.09,14.83,7.41,33.18,7.45
							c0.11,0,0.22,0,0.33,0c18.51,0,33.51-3.34,33.51-7.45c0-0.15,0.03-2.38,0.06-5.27c0.06-4.58,0.15-10.79,0.21-12.91
							C166.62,96.7,167.31,90.5,166.11,84.61z"></path>
					<path fill="#ECEBE3" d="M88.24,109.02c0,0,0-0.01,0-0.01c0-1.21-0.18-2.38-0.43-3.46c-0.24-1.03-0.32-2.07-0.49-3.11
							c-5.02,7.55-1.58,21.87,4.67,25.11c-1.05-4.29-2.18-8.5-2.79-11.99C88.73,112.85,88.24,110.57,88.24,109.02z"></path>
					<path fill="#ECEBE3" d="M175.85,109.01c0,0,0,0.01,0,0.01c0,1.55-0.24,3.83-0.72,6.54c-0.61,3.49-1.52,7.69-2.58,11.98
							c6.27-3.23,9.68-17.6,4.62-25.14c-0.18,1.05-0.41,2.1-0.65,3.15C176.28,106.63,175.85,107.8,175.85,109.01z"></path>
					<path fill="#242121" d="M174.59,181.67c-0.28,0.08-0.56,0.04-0.84,0.12c-0.03,0.01-0.07,0-0.11,0c0.04,0.01,0.07,0.01,0.11,0.03
							c-13.1,3.89-26.96,6.2-41.31,6.2c-14.34,0-28.19-2.42-41.28-6.3c0.04-0.02,0.09-0.03,0.13-0.05c-0.04-0.01-0.09-0.02-0.13-0.04
							c-0.01,0-0.02,0.01-0.03,0.01c-0.28-0.08-0.57-0.02-0.85-0.11c-24.29,9.67-61.47,31.45-61.47,54.16l104.35,60.81l102.89-60.81
							C236.06,212.98,198.88,191.35,174.59,181.67z"></path>
					<path fill="#242121" d="M132.43,188.01c14.36,0,28.22-2.31,41.31-6.2c-0.04-0.01-0.07-0.03-0.11-0.04
							c-13.07,3.87-26.89,6.21-41.21,6.21c-14.29,0-28.1-2.45-41.14-6.32c-0.04,0.02-0.09,0.03-0.13,0.05
							C104.24,185.6,118.09,188.01,132.43,188.01z"></path>
					<path fill="#808081" d="M131.41,166.69c0.29-0.01,0.91-0.01,0.91-0.01c0.3,0,0.6,0,0.89,0.01c6.44,0.16,13.07-0.01,19.05-2.61
							c0.05-0.02,0.09-0.03,0.14-0.05c5.67-2.5,10.08-7.72,13-13.03c1.43-2.6,4.67-13.02,7.19-23.21c1.06-4.29,1.99-9.75,2.6-11.74
							h-8.95c-0.04,1-0.06,4.88-0.06,5.03c0,4.11-15,7.33-33.51,7.33c-0.11,0-0.22-0.06-0.33-0.06c-18.35-0.04-33.18-3.15-33.18-7.24
							c0-0.09-0.13-4.06-0.3-5.06h-9.37c0.61,1.99,1.53,7.46,2.58,11.74c2.5,10.19,5.72,20.73,7.15,23.33
							c2.92,5.31,7.33,10.47,13,12.97c0.06,0.03,0.13,0.02,0.19,0.04C118.35,166.71,124.99,166.85,131.41,166.69z M127.99,157.79
							c-10.58-1.24-18.54-6.57-18.54-12.98c0-7.25,10.21-13.14,22.88-13.25c0.12,0,0.24-0.01,0.37-0.01
							c12.84,0,23.25,5.94,23.25,13.26c0,6.56-8.37,12-19.34,13.06c-0.11-3.12-2-2.89-4.31-2.89
							C130,154.99,128.13,154.71,127.99,157.79z"></path>
					<path fill="#242121" d="M176.95,76.4c-1.04-8.18-4.05-17.81-9.94-24.12c-0.26-0.44-0.54-0.87-0.88-1.26
							c-2.3-2.68-5.82-4.53-8.89-6.55c-0.52-0.38-1.06-0.76-1.61-1.12c-0.1-0.07-0.2-0.14-0.29-0.21c-0.47-0.36-0.99-0.65-1.53-0.91
							c-4.37-2.53-9.32-4.39-13.8-6.03c-2.5-0.91-5.06-1.47-7.68-1.68c-2.18,0.21-5.21,0.77-7.71,1.68c-4.48,1.64-9.44,3.5-13.82,6.03
							c-0.54,0.26-1.07,0.56-1.54,0.91c-0.09,0.07-0.2,0.14-0.29,0.21c-0.55,0.36-1.09,0.73-1.61,1.12c-3.08,2.02-6.6,3.87-8.89,6.55
							c-0.34,0.39-0.62,0.82-0.88,1.26c-5.9,6.31-8.88,15.94-9.93,24.12c-1.1,8.64-1.68,17.43-0.22,26.04
							c0.18,1.04,0.14,2.08,0.37,3.11c0.25,1.08,0.43,2.26,0.43,3.46c0,0,0,0.01,0,0.01c0,1.55,0.76,3.04,1.23,7.02h9.37
							c-0.27-4.98-0.62-11.05-0.68-13.15c-0.18-5.96-0.88-12.27,0.32-18.16c0.94-4.62,3.41-7.88,5.49-12c0.88-1.74,1.8-3.57,1.67-5.51
							c2.46,0.94,4.96,1.77,7.21,2.61c6.22,2.32,12.94,3.89,19.48,4.22c6.65-0.33,13.23-1.9,19.45-4.23c2.25-0.84,4.71-1.68,7.18-2.62
							c-0.13,1.94,0.79,3.73,1.67,5.48c2.08,4.12,4.55,7.32,5.49,11.94c1.2,5.89,0.5,12.33,0.33,18.28
							c-0.06,2.12-0.15,8.17-0.21,13.15h8.95c0.47-3.98,0.68-5.47,0.68-7.02c0,0,0-0.01,0-0.01c0-1.21,0.43-2.38,0.68-3.46
							c0.24-1.05,0.46-2.09,0.64-3.15C178.62,93.8,178.05,85.02,176.95,76.4z"></path>
				</g>
				<g>
					<path fill="#C5AA84" d="M125.18,251.82c0.65,0,1.28-0.01,1.91-0.04c0.62-0.03,1.15-0.07,1.58-0.12
							c0.54-0.05,1.03-0.13,1.46-0.24c0.11,0.22,0.19,0.46,0.24,0.73c0.05,0.27,0.09,0.6,0.12,0.97c0.03,0.38,0.04,0.84,0.04,1.38
							c-0.05,1.57-0.31,2.92-0.77,4.05c-0.46,1.14-1.2,1.7-2.23,1.7h-2.35v5.68c0,0.65-0.05,1.15-0.16,1.5
							c-0.11,0.35-0.45,0.61-1.01,0.77c-0.57,0.16-1.46,0.26-2.68,0.28c-1.22,0.03-2.96,0.04-5.23,0.04v-8.27h-12.41
							c-1.24-1.24-2.07-2.68-2.47-4.3c-0.41-1.62-0.61-3.08-0.61-4.38c0-0.49,0.3-1.51,0.89-3.08c0.59-1.57,1.36-3.41,2.31-5.51
							c0.95-2.11,2-4.36,3.16-6.77c1.16-2.4,2.32-4.66,3.49-6.77c1.16-2.11,2.26-3.96,3.28-5.55c1.03-1.59,1.86-2.64,2.51-3.12
							c0.59-0.43,1.2-0.78,1.82-1.05c0.62-0.27,1.31-0.41,2.07-0.41c1.13,0,2.15,0.12,3.04,0.37c0.89,0.24,1.63,0.53,2.23,0.85
							L125.18,251.82z M116.1,251.82l1.22-20.03c-0.7,0.92-1.51,2.24-2.43,3.97c-0.92,1.73-1.81,3.58-2.68,5.55
							c-0.87,1.97-1.65,3.92-2.35,5.84c-0.7,1.92-1.22,3.47-1.54,4.66H116.1z"></path>
					<path fill="#C5AA84" d="M136.04,231.06c-0.54-1.19-0.87-2.42-0.97-3.69c-0.11-1.27-0.16-2.26-0.16-2.96
							c0-0.65,0.42-1.24,1.26-1.78c0.84-0.54,1.95-1.01,3.32-1.42c1.38-0.41,2.93-0.73,4.66-0.97c1.73-0.24,3.51-0.37,5.35-0.37
							c4.59,0,7.81,0.97,9.65,2.92c1.84,1.95,2.76,4.78,2.76,8.51c0,2.43-0.51,4.73-1.54,6.89c-1.03,2.16-2.32,4.35-3.89,6.57
							c-1.57,2.22-3.34,4.55-5.31,7.01c-1.97,2.46-3.88,5.2-5.72,8.23h6c1.67,0,3.2-0.04,4.58-0.12c1.38-0.08,2.55-0.17,3.53-0.28
							c1.13-0.16,2.13-0.32,3-0.49c0,1.89-0.01,3.45-0.04,4.66c-0.03,1.22-0.11,2.18-0.24,2.88c-0.14,0.7-0.35,1.19-0.65,1.46
							c-0.3,0.27-0.69,0.41-1.18,0.41h-26.76c-0.16-0.49-0.26-1-0.28-1.54c-0.03-0.54-0.04-0.86-0.04-0.97c0-0.7,0.03-1.34,0.08-1.91
							c0.05-0.57,0.16-1.11,0.32-1.62c0.16-0.51,0.38-1.05,0.65-1.62c0.27-0.57,0.62-1.26,1.05-2.07c1.67-2.97,3.46-5.69,5.35-8.15
							c1.89-2.46,3.62-4.72,5.19-6.77c1.57-2.05,2.86-3.99,3.89-5.8c1.03-1.81,1.54-3.55,1.54-5.23c0-1.4-0.43-2.47-1.3-3.2
							c-0.87-0.73-2.03-1.09-3.49-1.09c-0.65,0-1.43,0.05-2.35,0.16c-0.92,0.11-1.88,0.27-2.88,0.49c-1,0.22-1.97,0.47-2.92,0.77
							c-0.95,0.3-1.77,0.64-2.47,1.01L136.04,231.06L136.04,231.06z"></path>
				</g>
			</g>
		</g>
	</symbol>
	<use xlink:href="#avatar">
	</use>
</svg>